<mxfile host="app.diagrams.net" modified="2024-03-24T01:08:26.104Z" agent="Mozilla/5.0 (Windows NT 10.0; Win64; x64) AppleWebKit/537.36 (KHTML, like Gecko) Chrome/122.0.0.0 Safari/537.36" etag="uDmxVJ8U9viOQ3P2xLh1" version="24.1.0" type="onedrive">
  <diagram name="Page-1" id="ZVBOZOPymjg8OdqwbYo4">
    <mxGraphModel grid="1" page="1" gridSize="10" guides="1" tooltips="1" connect="1" arrows="1" fold="1" pageScale="1" pageWidth="1100" pageHeight="850" math="0" shadow="0">
      <root>
        <mxCell id="0" />
        <mxCell id="1" parent="0" />
        <mxCell id="aX0VOQ_FhY7mO1iQJ_pu-2" value="&lt;font data-font-src=&quot;https://fonts.googleapis.com/css?family=Sen&quot; face=&quot;Sen&quot; style=&quot;font-size: 20px;&quot;&gt;Telemetry&lt;/font&gt;" style="swimlane;whiteSpace=wrap;html=1;fillColor=#dae8fc;strokeColor=#6c8ebf;startSize=60;strokeWidth=2;" vertex="1" parent="1">
          <mxGeometry x="120" y="160" width="400" height="200" as="geometry" />
        </mxCell>
        <mxCell id="aX0VOQ_FhY7mO1iQJ_pu-7" value="&lt;font style=&quot;font-size: 20px;&quot; data-font-src=&quot;https://fonts.googleapis.com/css?family=Sen&quot; face=&quot;Sen&quot;&gt;Vehicle&lt;/font&gt;" style="rounded=1;whiteSpace=wrap;html=1;fillColor=#dae8fc;strokeColor=#6c8ebf;" vertex="1" parent="aX0VOQ_FhY7mO1iQJ_pu-2">
          <mxGeometry x="50" y="100" width="120" height="50" as="geometry" />
        </mxCell>
        <mxCell id="aX0VOQ_FhY7mO1iQJ_pu-8" value="&lt;font style=&quot;font-size: 20px;&quot; data-font-src=&quot;https://fonts.googleapis.com/css?family=Sen&quot; face=&quot;Sen&quot;&gt;vehicle-data&lt;/font&gt;" style="rounded=1;whiteSpace=wrap;html=1;fillColor=#dae8fc;strokeColor=#6c8ebf;" vertex="1" parent="aX0VOQ_FhY7mO1iQJ_pu-2">
          <mxGeometry x="230" y="100" width="120" height="50" as="geometry" />
        </mxCell>
        <mxCell id="aX0VOQ_FhY7mO1iQJ_pu-3" value="&lt;font data-font-src=&quot;https://fonts.googleapis.com/css?family=Sen&quot; face=&quot;Sen&quot; style=&quot;font-size: 20px;&quot;&gt;Commands&lt;/font&gt;" style="swimlane;whiteSpace=wrap;html=1;fillColor=#e1d5e7;strokeColor=#9673a6;startSize=60;strokeWidth=2;" vertex="1" parent="1">
          <mxGeometry x="560" y="160" width="400" height="200" as="geometry" />
        </mxCell>
        <mxCell id="aX0VOQ_FhY7mO1iQJ_pu-9" value="&lt;font style=&quot;font-size: 20px;&quot; data-font-src=&quot;https://fonts.googleapis.com/css?family=Sen&quot; face=&quot;Sen&quot;&gt;zones/&lt;/font&gt;&lt;div&gt;&lt;font style=&quot;font-size: 20px;&quot; data-font-src=&quot;https://fonts.googleapis.com/css?family=Sen&quot; face=&quot;Sen&quot;&gt;{in/out}&lt;/font&gt;&lt;/div&gt;" style="rounded=1;whiteSpace=wrap;html=1;fillColor=#e1d5e7;strokeColor=#9673a6;" vertex="1" parent="aX0VOQ_FhY7mO1iQJ_pu-3">
          <mxGeometry x="10" y="100" width="120" height="50" as="geometry" />
        </mxCell>
        <mxCell id="aX0VOQ_FhY7mO1iQJ_pu-11" value="&lt;font style=&quot;font-size: 20px;&quot; data-font-src=&quot;https://fonts.googleapis.com/css?family=Sen&quot; face=&quot;Sen&quot;&gt;vehicle-stage&lt;/font&gt;" style="rounded=1;whiteSpace=wrap;html=1;fillColor=#e1d5e7;strokeColor=#9673a6;" vertex="1" parent="aX0VOQ_FhY7mO1iQJ_pu-3">
          <mxGeometry x="140" y="100" width="120" height="50" as="geometry" />
        </mxCell>
        <mxCell id="aX0VOQ_FhY7mO1iQJ_pu-13" value="&lt;font style=&quot;font-size: 20px;&quot; data-font-src=&quot;https://fonts.googleapis.com/css?family=Sen&quot; face=&quot;Sen&quot;&gt;vehicle-status&lt;/font&gt;" style="rounded=1;whiteSpace=wrap;html=1;fillColor=#e1d5e7;strokeColor=#9673a6;" vertex="1" parent="aX0VOQ_FhY7mO1iQJ_pu-3">
          <mxGeometry x="270" y="100" width="120" height="50" as="geometry" />
        </mxCell>
        <mxCell id="aX0VOQ_FhY7mO1iQJ_pu-14" style="edgeStyle=orthogonalEdgeStyle;rounded=0;orthogonalLoop=1;jettySize=auto;html=1;entryX=0.5;entryY=1;entryDx=0;entryDy=0;strokeWidth=1.5;fillColor=#e1d5e7;strokeColor=#9673a6;dashed=1;exitX=1;exitY=0.75;exitDx=0;exitDy=0;" edge="1" parent="1" source="aX0VOQ_FhY7mO1iQJ_pu-5" target="aX0VOQ_FhY7mO1iQJ_pu-13">
          <mxGeometry relative="1" as="geometry">
            <Array as="points">
              <mxPoint x="645" y="780" />
              <mxPoint x="890" y="780" />
            </Array>
          </mxGeometry>
        </mxCell>
        <mxCell id="aX0VOQ_FhY7mO1iQJ_pu-17" style="edgeStyle=orthogonalEdgeStyle;rounded=0;orthogonalLoop=1;jettySize=auto;html=1;exitX=0.921;exitY=0;exitDx=0;exitDy=0;entryX=0.5;entryY=1;entryDx=0;entryDy=0;strokeWidth=1.5;fillColor=#e1d5e7;strokeColor=#9673a6;exitPerimeter=0;startArrow=classic;startFill=1;endArrow=none;endFill=0;" edge="1" parent="1" source="aX0VOQ_FhY7mO1iQJ_pu-5" target="aX0VOQ_FhY7mO1iQJ_pu-9">
          <mxGeometry relative="1" as="geometry">
            <Array as="points">
              <mxPoint x="630" y="710" />
            </Array>
          </mxGeometry>
        </mxCell>
        <mxCell id="aX0VOQ_FhY7mO1iQJ_pu-18" style="edgeStyle=orthogonalEdgeStyle;rounded=0;orthogonalLoop=1;jettySize=auto;html=1;exitX=1;exitY=0.25;exitDx=0;exitDy=0;entryX=0.5;entryY=1;entryDx=0;entryDy=0;strokeWidth=1.5;fillColor=#e1d5e7;strokeColor=#9673a6;dashed=1;" edge="1" parent="1" source="aX0VOQ_FhY7mO1iQJ_pu-5" target="aX0VOQ_FhY7mO1iQJ_pu-11">
          <mxGeometry relative="1" as="geometry">
            <Array as="points">
              <mxPoint x="760" y="735" />
            </Array>
          </mxGeometry>
        </mxCell>
        <mxCell id="aX0VOQ_FhY7mO1iQJ_pu-5" value="&lt;font size=&quot;1&quot; data-font-src=&quot;https://fonts.googleapis.com/css?family=Sen&quot; face=&quot;Sen&quot;&gt;&lt;b style=&quot;font-size: 20px;&quot;&gt;User Interface&lt;/b&gt;&lt;/font&gt;" style="rounded=1;whiteSpace=wrap;html=1;fillColor=#d5e8d4;strokeColor=#82b366;strokeWidth=2;" vertex="1" parent="1">
          <mxGeometry x="455" y="710" width="190" height="100" as="geometry" />
        </mxCell>
        <mxCell id="aX0VOQ_FhY7mO1iQJ_pu-19" style="edgeStyle=orthogonalEdgeStyle;rounded=0;orthogonalLoop=1;jettySize=auto;html=1;exitX=0.679;exitY=0.986;exitDx=0;exitDy=0;fillColor=#e1d5e7;strokeColor=#9673a6;strokeWidth=1.5;exitPerimeter=0;entryX=1.001;entryY=0.404;entryDx=0;entryDy=0;entryPerimeter=0;" edge="1" parent="1" source="aX0VOQ_FhY7mO1iQJ_pu-11" target="aX0VOQ_FhY7mO1iQJ_pu-5">
          <mxGeometry relative="1" as="geometry">
            <Array as="points">
              <mxPoint x="780" y="309" />
              <mxPoint x="780" y="750" />
            </Array>
            <mxPoint x="650" y="750" as="targetPoint" />
          </mxGeometry>
        </mxCell>
        <mxCell id="aX0VOQ_FhY7mO1iQJ_pu-28" style="edgeStyle=orthogonalEdgeStyle;rounded=0;orthogonalLoop=1;jettySize=auto;html=1;strokeWidth=1.5;fillColor=#dae8fc;strokeColor=#6c8ebf;exitX=0.67;exitY=1.025;exitDx=0;exitDy=0;exitPerimeter=0;" edge="1" parent="1" source="aX0VOQ_FhY7mO1iQJ_pu-8">
          <mxGeometry relative="1" as="geometry">
            <mxPoint x="321" y="200" as="sourcePoint" />
            <mxPoint x="500" y="710" as="targetPoint" />
            <Array as="points">
              <mxPoint x="430" y="450" />
              <mxPoint x="500" y="450" />
            </Array>
          </mxGeometry>
        </mxCell>
        <mxCell id="aX0VOQ_FhY7mO1iQJ_pu-30" style="edgeStyle=orthogonalEdgeStyle;rounded=0;orthogonalLoop=1;jettySize=auto;html=1;exitX=0.5;exitY=1;exitDx=0;exitDy=0;entryX=0.128;entryY=-0.026;entryDx=0;entryDy=0;entryPerimeter=0;startArrow=classic;startFill=1;endArrow=none;endFill=0;dashed=1;strokeWidth=1.5;fillColor=#dae8fc;strokeColor=#6c8ebf;" edge="1" parent="1" source="aX0VOQ_FhY7mO1iQJ_pu-8" target="aX0VOQ_FhY7mO1iQJ_pu-5">
          <mxGeometry relative="1" as="geometry">
            <Array as="points">
              <mxPoint x="410" y="470" />
              <mxPoint x="479" y="470" />
            </Array>
          </mxGeometry>
        </mxCell>
        <mxCell id="aX0VOQ_FhY7mO1iQJ_pu-32" style="edgeStyle=orthogonalEdgeStyle;rounded=0;orthogonalLoop=1;jettySize=auto;html=1;entryX=0;entryY=0.5;entryDx=0;entryDy=0;dashed=1;dashPattern=8 8;strokeWidth=1.5;fillColor=#dae8fc;strokeColor=#6c8ebf;exitX=0.5;exitY=1;exitDx=0;exitDy=0;" edge="1" parent="1" source="aX0VOQ_FhY7mO1iQJ_pu-7" target="aX0VOQ_FhY7mO1iQJ_pu-5">
          <mxGeometry relative="1" as="geometry">
            <Array as="points">
              <mxPoint x="230" y="760" />
            </Array>
          </mxGeometry>
        </mxCell>
        <mxCell id="aX0VOQ_FhY7mO1iQJ_pu-34" value="" style="group" connectable="0" vertex="1" parent="1">
          <mxGeometry x="255" y="490" width="200" height="200" as="geometry" />
        </mxCell>
        <mxCell id="aX0VOQ_FhY7mO1iQJ_pu-23" value="" style="endArrow=classic;html=1;rounded=0;dashed=1;strokeWidth=1.5;" edge="1" parent="aX0VOQ_FhY7mO1iQJ_pu-34">
          <mxGeometry width="50" height="50" relative="1" as="geometry">
            <mxPoint x="70" y="160" as="sourcePoint" />
            <mxPoint x="70" y="70" as="targetPoint" />
          </mxGeometry>
        </mxCell>
        <mxCell id="aX0VOQ_FhY7mO1iQJ_pu-24" value="" style="endArrow=none;html=1;rounded=0;strokeWidth=1.5;startArrow=classic;startFill=1;endFill=0;" edge="1" parent="aX0VOQ_FhY7mO1iQJ_pu-34">
          <mxGeometry width="50" height="50" relative="1" as="geometry">
            <mxPoint x="130" y="160" as="sourcePoint" />
            <mxPoint x="130" y="70" as="targetPoint" />
          </mxGeometry>
        </mxCell>
        <mxCell id="aX0VOQ_FhY7mO1iQJ_pu-25" value="&lt;font style=&quot;font-size: 20px;&quot; data-font-src=&quot;https://fonts.googleapis.com/css?family=Sen&quot; face=&quot;Sen&quot;&gt;POST&lt;/font&gt;" style="text;html=1;align=center;verticalAlign=middle;whiteSpace=wrap;rounded=0;" vertex="1" parent="aX0VOQ_FhY7mO1iQJ_pu-34">
          <mxGeometry x="40" y="160" width="60" height="30" as="geometry" />
        </mxCell>
        <mxCell id="aX0VOQ_FhY7mO1iQJ_pu-26" value="&lt;font data-font-src=&quot;https://fonts.googleapis.com/css?family=Sen&quot; face=&quot;Sen&quot; style=&quot;font-size: 20px;&quot;&gt;GET&lt;/font&gt;" style="text;html=1;align=center;verticalAlign=middle;whiteSpace=wrap;rounded=0;" vertex="1" parent="aX0VOQ_FhY7mO1iQJ_pu-34">
          <mxGeometry x="100" y="160" width="60" height="30" as="geometry" />
        </mxCell>
        <mxCell id="aX0VOQ_FhY7mO1iQJ_pu-33" value="&lt;font style=&quot;font-size: 20px;&quot; data-font-src=&quot;https://fonts.googleapis.com/css?family=Sen&quot; face=&quot;Sen&quot;&gt;Endpoint Legend&lt;/font&gt;" style="swimlane;whiteSpace=wrap;html=1;startSize=50;strokeWidth=2;" vertex="1" parent="aX0VOQ_FhY7mO1iQJ_pu-34">
          <mxGeometry width="200" height="200" as="geometry" />
        </mxCell>
        <mxCell id="S4xHAggENmDOeMMkM1ax-1" style="edgeStyle=orthogonalEdgeStyle;rounded=0;orthogonalLoop=1;jettySize=auto;html=1;entryX=0.338;entryY=0.991;entryDx=0;entryDy=0;strokeWidth=1.5;fillColor=#e1d5e7;strokeColor=#9673a6;startArrow=none;startFill=0;endArrow=classic;endFill=1;entryPerimeter=0;dashed=1;" edge="1" parent="1" target="aX0VOQ_FhY7mO1iQJ_pu-9">
          <mxGeometry relative="1" as="geometry">
            <Array as="points">
              <mxPoint x="610" y="520" />
            </Array>
            <mxPoint x="611" y="710" as="sourcePoint" />
            <mxPoint x="610" y="320" as="targetPoint" />
          </mxGeometry>
        </mxCell>
      </root>
    </mxGraphModel>
  </diagram>
</mxfile>
